<svg id="Layer_1" data-name="Layer 1" viewBox="0 0 1000 1000" version="1.1" xmlns="http://www.w3.org/2000/svg"><defs id="defs4"><style id="style2">.cls-5{fill:#ffc195}.cls-6{fill:#ffa688}.cls-7{fill:none;stroke:#171819;stroke-linecap:round;stroke-linejoin:round;stroke-width:6px}.cls-8{fill:#ffdc00}.cls-9{fill:#ff9770}</style></defs><path class="cls-5" d="M437.45 272.51L362 511l-91.82 62.79L284.56 731l158.67-85a100.24 100.24 0 0052.92-88.12l.69-276.5A30.35 30.35 0 00466.49 251a30.35 30.35 0 00-29.04 21.51z" id="path158"/><path class="cls-6" d="M466.49 251a30.33 30.33 0 00-19.38 7 30.35 30.35 0 0129.81 30.42l-.69 276.5a100.24 100.24 0 01-52.92 88.12l-139.07 74.47.32 3.49 158.67-85a100.24 100.24 0 0052.92-88.12l.69-276.5A30.35 30.35 0 00466.49 251z" id="path160"/><path class="cls-7" d="M437.45 272.51L362 511l-91.82 62.79L284.56 731l158.67-85a100.24 100.24 0 0052.92-88.12l.69-276.5A30.35 30.35 0 00466.49 251a30.35 30.35 0 00-29.04 21.51z" id="path162"/><path class="cls-8" d="M341.34 545.79l23.06 69.56a138.1 138.1 0 017 46.16l-.92 48.35A24.69 24.69 0 01355.63 732l-153 66.42-53.45-215.3 150.38-57.19a32 32 0 0141.78 19.86z" id="path164"/><path class="cls-9" d="M364.4 615.35l-23.06-69.56a32 32 0 00-24.92-21.46l19.29 58.18a138.25 138.25 0 017 46.15l-.94 48.34a24.65 24.65 0 01-14.83 22.15L192.5 757.54l10.16 40.89 153-66.42a24.69 24.69 0 0014.84-22.15l.92-48.35a138.1 138.1 0 00-7.02-46.16z" id="path166"/><path class="cls-7" d="M341.34 545.79l23.06 69.56a138.1 138.1 0 017 46.16l-.92 48.35A24.69 24.69 0 01355.63 732l-153 66.42-53.45-215.3 150.38-57.19a32 32 0 0141.78 19.86z" id="path168"/><path class="cls-6" d="M472.23 391.85a24 24 0 00-18.57 8.82 24 24 0 0123.08 24V533h19.47V415.83a24 24 0 00-23.98-23.98z" id="path170"/><path class="cls-7" d="M420.81 514.94l28.25-105.29a24 24 0 0123.17-17.8 24 24 0 0124 24V533" id="path172"/><path class="cls-5" d="M556.24 272.51L631.69 511l91.82 62.79L709.13 731l-158.67-85a100.24 100.24 0 01-52.92-88.12l-.7-276.5A30.37 30.37 0 01527.2 251a30.35 30.35 0 0129.04 21.51z" id="path174"/><path class="cls-6" d="M527.2 251a30.33 30.33 0 0119.38 7 30.36 30.36 0 00-29.82 30.42l.7 276.5a100.24 100.24 0 0052.92 88.12l139.07 74.46-.32 3.49-158.67-85a100.24 100.24 0 01-52.92-88.12l-.7-276.5A30.37 30.37 0 01527.2 251z" id="path176"/><path class="cls-7" d="M556.24 272.51L631.69 511l91.82 62.79L709.13 731l-158.67-85a100.24 100.24 0 01-52.92-88.12l-.7-276.5A30.37 30.37 0 01527.2 251a30.35 30.35 0 0129.04 21.51z" id="path178"/><path class="cls-8" d="M652.35 545.79l-23.06 69.56a138.36 138.36 0 00-7 46.16l.93 48.35A24.69 24.69 0 00638.06 732l153 66.42 53.45-215.3-150.41-57.18a32 32 0 00-41.75 19.85z" id="path180"/><path class="cls-9" d="M629.29 615.35l23.06-69.56a32 32 0 0124.92-21.46L658 582.51a138.25 138.25 0 00-7 46.15l.93 48.35a24.65 24.65 0 0014.83 22.15l134.43 58.38L791 798.43 638.06 732a24.69 24.69 0 01-14.84-22.15l-.93-48.35a138.36 138.36 0 017-46.15z" id="path182"/><path class="cls-7" d="M652.35 545.79l-23.06 69.56a138.36 138.36 0 00-7 46.16l.93 48.35A24.69 24.69 0 00638.06 732l153 66.42 53.45-215.3-150.41-57.18a32 32 0 00-41.75 19.85z" id="path184"/><path class="cls-6" d="M521.46 391.85a24 24 0 0118.54 8.82 24 24 0 00-23.08 24V533h-19.44V415.83a24 24 0 0123.98-23.98z" id="path186"/><path class="cls-7" d="M572.88 514.94l-28.25-105.29a24 24 0 00-23.17-17.8 24 24 0 00-24 24V533" id="path188"/></svg>