<svg width="44" height="53" xmlns="http://www.w3.org/2000/svg"><path stroke="#e1701a" d="M31.038 38.37h-18.49a.77.77 0 01-.768-.71l-1.49-19.363a6.172 6.172 0 01-5.446-6.122c0-3.404 2.833-6.28 6.188-6.28.7 0 1.389.137 2.03.401 1.082-2.974 4.447-4.907 8.731-4.907 4.025 0 6.84 1.627 8.583 4.97a5.338 5.338 0 012.179-.464c3.354 0 6.188 2.876 6.188 6.28a6.172 6.172 0 01-5.447 6.122l-1.49 19.362a.77.77 0 01-.768.711zm-17.777-1.54h17.063l1.486-19.32a.772.772 0 01.77-.712 4.627 4.627 0 004.622-4.623c0-2.793-2.45-4.739-4.647-4.739-.757 0-1.463.211-2.099.63a.77.77 0 01-1.128-.333c-1.45-3.277-3.844-4.803-7.535-4.803-3.973 0-6.98 1.86-7.48 4.63a.769.769 0 01-1.182.506 3.756 3.756 0 00-2.099-.63c-2.198 0-4.648 1.946-4.648 4.74a4.627 4.627 0 004.623 4.622.77.77 0 01.768.711l1.486 19.32z" fill="#e1701a" stroke-width="2"/><path stroke="#e1701a" d="M30.225 31.476H13.866c-.357 0-.647-.233-.647-.522s.29-.521.647-.521h16.359c.358 0 .648.233.648.521s-.29.522-.648.522zm-8.495-1.703a.432.432 0 01-.432-.432v-4.318a.432.432 0 11.864 0v4.318a.432.432 0 01-.432.432z" fill="#e1701a" stroke-width="2"/><text fill="#383430" stroke-width=".3" x="9.859" y="49.901" font-size="7" font-family="'Palatino Linotype', 'Book Antiqua', Palatino, serif" transform="matrix(1.27911 0 0 1.65045 -12.331 -33.645)" stroke="#383430">EateryApp</text></svg>