<svg width="44" height="53" xmlns="http://www.w3.org/2000/svg">
  <path stroke="#e1701a"
    d="m31.038421,38.370225l-18.490515,0c-0.402169,0 -0.737309,-0.309716 -0.768127,-0.711114l-1.489257,-19.361881c-3.062492,-0.355942 -5.446998,-2.965416 -5.446998,-6.121901c0,-3.404566 2.833671,-6.279841 6.188159,-6.279841c0.701099,0 1.3891,0.136368 2.030875,0.400628c1.081695,-2.973891 4.446198,-4.90692 8.730605,-4.90692c4.024769,0 6.83995,1.627165 8.582681,4.969326c0.683379,-0.305094 1.42377,-0.463804 2.178799,-0.463804c3.354488,0.00077 6.188159,2.876046 6.188159,6.280612c0,3.156485 -2.384506,5.765959 -5.446998,6.121901l-1.489257,19.361881c-0.030818,0.401398 -0.365958,0.711114 -0.768127,0.711114zm-17.77709,-1.540876l17.062893,0l1.486175,-19.320277c0.031588,-0.401398 0.366729,-0.711114 0.768897,-0.711114c2.54938,0 4.622629,-2.073249 4.622629,-4.622629c0,-2.792838 -2.449223,-4.738965 -4.647283,-4.738965c-0.75657,0 -1.463062,0.2111 -2.098673,0.629448c-0.188757,0.124041 -0.424511,0.159481 -0.641005,0.094764c-0.217264,-0.063946 -0.395235,-0.219575 -0.486917,-0.427593c-1.449965,-3.276673 -3.843716,-4.802911 -7.534885,-4.802911c-3.973149,0 -6.979399,1.860608 -7.480954,4.629563c-0.046226,0.254245 -0.216493,0.468426 -0.454558,0.570124c-0.237295,0.103239 -0.5108,0.078585 -0.726523,-0.063946c-0.635611,-0.418348 -1.342103,-0.629448 -2.098673,-0.629448c-2.19883,0 -4.648053,1.946127 -4.648053,4.738965c0,2.54938 2.073249,4.622629 4.622629,4.622629c0.402169,0 0.737309,0.309716 0.768127,0.711114l1.486175,19.320277z"
    fill="#e1701a" stroke-width="2" />
  <path stroke="#e1701a"
    d="m30.224975,31.475885l-16.358585,0c-0.357621,0 -0.647865,-0.233163 -0.647865,-0.521606s0.290243,-0.521606 0.647865,-0.521606l16.358585,0c0.357621,0 0.647865,0.233158 0.647865,0.521606s-0.290243,0.521606 -0.647865,0.521606z"
    fill="#e1701a" stroke-width="2" />
  <path stroke="#e1701a"
    d="m21.730035,29.773021c-0.238373,0 -0.431834,-0.19303 -0.431834,-0.431834l0,-4.318343c0,-0.238804 0.193462,-0.431834 0.431834,-0.431834s0.431834,0.19303 0.431834,0.431834l0,4.318343c0,0.238804 -0.193462,0.431834 -0.431834,0.431834z"
    fill="#e1701a" stroke-width="2" />
  <text fill="#383430" stroke-width="0.3" x="9.859164" y="49.90132" font-size="7"
    font-family="'Palatino Linotype', 'Book Antiqua', Palatino, serif" text-anchor="start" xml:space="preserve"
    transform="matrix(1.279114023849297,0,0,1.650446665991955,-12.331417070081732,-33.64488095698134) "
    stroke="#383430">EateryApp</text>
</svg>