<svg width="54" height="54" xmlns="http://www.w3.org/2000/svg"><path stroke-width="2" stroke="#e1701a" fill="#e1701a" d="M39.1 50.9h-24c-.5 0-1-.4-1-.9l-1.9-25.1c-4-.5-7.1-3.8-7.1-7.9 0-4.4 3.7-8.2 8-8.2.9 0 1.8.2 2.6.5 1.4-3.9 5.8-6.4 11.3-6.4 5.2 0 8.9 2.1 11.1 6.5.9-.4 1.8-.6 2.8-.6 4.4 0 8 3.7 8 8.2 0 4.1-3.1 7.5-7.1 7.9L39.9 50c0 .5-.5.9-1 .9zm-23.1-2h22.1L40 23.8c0-.5.5-.9 1-.9 3.3 0 6-2.7 6-6 0-3.6-3.2-6.2-6-6.2-1 0-1.9.3-2.7.8-.2.2-.6.2-.8.1-.3-.1-.5-.3-.6-.6-1.9-4.3-5-6.2-9.8-6.2-5.2 0-9.1 2.4-9.7 6-.1.3-.3.6-.6.7-.3.1-.7.1-.9-.1-.8-.5-1.7-.8-2.7-.8-2.9 0-6 2.5-6 6.2 0 3.3 2.7 6 6 6 .5 0 1 .4 1 .9l1.9 25.1z"/><path stroke-width="2" stroke="#e1701a" fill="#e1701a" d="M39.7 42.2H14.4c-.6 0-1-.4-1-1s.4-1 1-1h25.3c.6 0 1 .4 1 1s-.4 1-1 1z"/><path d="M27.1 39.9c-.6 0-1-.4-1-1v-8c0-.6.4-1 1-1s1 .4 1 1v8c0 .6-.4 1-1 1z"/><path stroke-width="2" stroke="#e1701a" fill="#e1701a" d="M27.1 39.9c-.6 0-1-.4-1-1v-10c0-.6.4-1 1-1s1 .4 1 1v10c0 .6-.4 1-1 1z"/><path stroke-width="2" stroke="#e1701a" fill="#e1701a" d="M27.1 42.2c-.6 0-1-.4-1-1v-8c0-.6.4-1 1-1s1 .4 1 1v8c0 .6-.4 1-1 1z"/></svg>