<svg width="54" height="54" xmlns="http://www.w3.org/2000/svg">
  <path stroke-width="2" stroke="#e1701a" fill="#e1701a"
    d="M 39.1 50.9 l -24 0 c -0.5 0 -1 -0.4 -1 -0.9 l -1.9 -25.1 c -4 -0.5 -7.1 -3.8 -7.1 -7.9 c 0 -4.4 3.7 -8.2 8 -8.2 c 0.9 0 1.8 0.2 2.6 0.5 c 1.4 -3.9 5.8 -6.4 11.3 -6.4 c 5.2 0 8.9 2.1 11.1 6.5 c 0.9 -0.4 1.8 -0.6 2.8 -0.6 c 4.4 0 8 3.7 8 8.2 c 0 4.1 -3.1 7.5 -7.1 7.9 l -1.9 25.1 c 0 0.5 -0.5 0.9 -1 0.9 z m -23.1 -2 l 22.1 0 l 1.9 -25.1 c 0 -0.5 0.5 -0.9 1 -0.9 c 3.3 0 6 -2.7 6 -6 c 0 -3.6 -3.2 -6.2 -6 -6.2 c -1 0 -1.9 0.3 -2.7 0.8 c -0.2 0.2 -0.6 0.2 -0.8 0.1 c -0.3 -0.1 -0.5 -0.3 -0.6 -0.6 c -1.9 -4.3 -5 -6.2 -9.8 -6.2 c -5.2 0 -9.1 2.4 -9.7 6 c -0.1 0.3 -0.3 0.6 -0.6 0.7 c -0.3 0.1 -0.7 0.1 -0.9 -0.1 c -0.8 -0.5 -1.7 -0.8 -2.7 -0.8 c -2.9 0 -6 2.5 -6 6.2 c 0 3.3 2.7 6 6 6 c 0.5 0 1 0.4 1 0.9 l 1.9 25.1 z" />
  <path stroke-width="2" stroke="#e1701a" fill="#e1701a"
    d="M 39.7 42.2 l -25.3 0 c -0.6 0 -1 -0.4 -1 -1 s 0.4 -1 1 -1 l 25.3 0 c 0.6 0 1 0.4 1 1 s -0.4 1 -1 1 z" />
  <path d="M 27.1 39.9 c -0.6 0 -1 -0.4 -1 -1 l 0 -8 c 0 -0.6 0.4 -1 1 -1 s 1 0.4 1 1 l 0 8 c 0 0.6 -0.4 1 -1 1 z" />
  <path stroke-width="2" stroke="#e1701a" fill="#e1701a"
    d="M 27.1 39.9 c -0.6 0 -1 -0.4 -1 -1 l 0 -10 c 0 -0.6 0.4 -1 1 -1 s 1 0.4 1 1 l 0 10 c 0 0.6 -0.4 1 -1 1 z" />
  <path stroke-width="2" stroke="#e1701a" fill="#e1701a"
    d="M 27.1 42.2 c -0.6 0 -1 -0.4 -1 -1 l 0 -8 c 0 -0.6 0.4 -1 1 -1 s 1 0.4 1 1 l 0 8 c 0 0.6 -0.4 1 -1 1 z" />
</svg>